<?xml version="1.0" standalone="no"?>
<!DOCTYPE svg PUBLIC "-//W3C//DTD SVG 20010904//EN"
 "http://www.w3.org/TR/2001/REC-SVG-20010904/DTD/svg10.dtd">
<svg version="1.0" xmlns="http://www.w3.org/2000/svg"
 width="90.000000pt" height="90.000000pt" viewBox="0 0 90.000000 90.000000"
 preserveAspectRatio="xMidYMid meet">
<metadata>
Created by potrace 1.16, written by Peter Selinger 2001-2019
</metadata>
<g transform="translate(0.000000,90.000000) scale(0.008798,-0.029316)"
fill="#000000" stroke="none">
<path d="M9264 2809 c-48 -91 -101 -154 -280 -334 -159 -159 -195 -216 -202
-321 -6 -92 17 -157 94 -264 78 -108 113 -180 121 -248 9 -75 -4 -133 -43
-198 l-35 -59 36 35 c88 84 113 165 125 408 11 215 23 288 58 360 24 50 117
150 129 139 3 -3 -11 -32 -30 -64 -77 -128 -94 -215 -78 -412 6 -74 11 -145
11 -158 0 -21 3 -22 48 -17 138 17 253 67 329 142 89 89 118 190 111 379 -6
135 -30 218 -99 339 -39 67 -161 237 -226 313 l-30 35 -39 -75z"/>
<path d="M643 2853 l-73 -15 0 -739 c0 -407 3 -739 8 -739 4 0 43 9 87 18 l80
18 3 322 2 322 285 0 285 0 0 -340 0 -341 36 7 c20 4 59 12 88 18 l51 11 3
738 c1 405 -1 737 -5 737 -5 0 -45 -7 -90 -16 l-83 -17 0 -313 0 -314 -285 0
-285 0 0 330 c0 308 -1 330 -17 329 -10 -1 -51 -8 -90 -16z"/>
<path d="M8185 2613 c-67 -6 -69 -8 -42 -55 32 -55 51 -118 77 -248 25 -125
54 -180 114 -215 38 -22 53 -25 150 -25 120 0 161 -12 214 -62 33 -33 40 -32
21 5 -20 39 -62 78 -161 148 -108 77 -154 126 -169 182 -17 64 -5 78 20 25 32
-67 85 -115 184 -170 47 -27 88 -48 90 -48 3 0 15 26 27 58 27 71 29 161 5
220 -32 77 -154 161 -266 182 -49 10 -178 11 -264 3z"/>
<path d="M3520 2551 l-65 -17 -3 -395 c-1 -254 2 -413 8 -446 53 -255 327
-402 586 -313 195 68 326 285 294 490 -36 228 -258 401 -484 375 -66 -7 -162
-42 -202 -74 -15 -12 -31 -21 -35 -21 -5 0 -9 95 -9 210 0 162 -3 210 -12 209
-7 0 -42 -9 -78 -18z m462 -481 c54 -15 141 -99 168 -162 31 -71 25 -175 -13
-240 -34 -59 -93 -111 -150 -133 -67 -25 -170 -17 -230 19 -182 106 -197 345
-32 472 67 51 169 68 257 44z"/>
<path d="M6403 2552 l-63 -15 0 -84 c0 -46 4 -83 9 -83 4 0 21 4 37 9 16 5 48
14 72 20 l42 12 0 79 c0 91 5 88 -97 62z"/>
<path d="M7708 2493 l-78 -46 0 -113 0 -114 -38 0 -38 0 -22 -68 c-12 -38 -22
-74 -22 -80 0 -8 21 -12 60 -12 l60 0 0 -228 c0 -318 19 -380 132 -436 42 -21
66 -26 129 -26 42 0 91 3 108 6 l31 7 0 78 0 79 -77 -5 c-67 -6 -82 -4 -110
14 -19 12 -35 33 -40 51 -4 16 -7 127 -5 245 l3 215 114 0 115 0 0 80 0 80
-115 0 -115 0 -1 28 c0 15 0 87 1 160 1 72 -3 132 -7 131 -4 0 -43 -21 -85
-46z"/>
<path d="M2105 2238 c-37 -5 -88 -22 -132 -44 -214 -108 -300 -373 -193 -590
43 -87 145 -181 236 -219 130 -53 298 -34 442 52 l62 37 0 103 c0 57 -2 103
-5 103 -3 0 -32 -22 -65 -48 -92 -75 -158 -104 -246 -110 -91 -6 -149 13 -211
71 -24 22 -43 43 -43 47 0 7 155 104 430 268 182 109 175 103 160 133 -76 144
-246 221 -435 197z m156 -170 c22 -6 39 -14 39 -18 0 -6 -365 -228 -393 -239
-13 -5 2 77 20 112 21 41 82 106 117 124 63 33 151 41 217 21z"/>
<path d="M6945 2241 c-130 -34 -215 -134 -215 -253 0 -66 16 -106 64 -156 43
-47 90 -68 208 -97 113 -27 148 -47 159 -90 20 -71 -41 -125 -141 -125 -65 0
-115 21 -165 70 l-40 38 -63 -57 -64 -57 61 -56 c81 -76 147 -101 266 -101 78
0 99 3 152 28 223 100 228 377 9 474 -25 11 -82 27 -128 36 -46 10 -95 24
-110 31 -51 26 -49 98 4 137 21 16 43 21 93 21 55 0 76 -6 136 -37 l71 -36 30
35 c17 19 39 46 50 59 l19 24 -43 32 c-82 60 -145 83 -238 86 -47 1 -98 -1
-115 -6z"/>
<path d="M2820 2221 l-65 -17 -3 -422 c-1 -232 1 -422 5 -422 5 0 40 9 78 18
l70 18 6 235 c7 273 14 305 89 379 45 46 78 60 139 60 24 0 31 9 63 79 l36 80
-29 6 c-55 12 -182 -21 -255 -66 -17 -10 -34 -19 -38 -19 -3 0 -6 20 -6 45 0
51 3 50 -90 26z"/>
<path d="M4850 2221 c-69 -22 -87 -32 -140 -76 -208 -174 -221 -467 -28 -659
73 -72 144 -110 241 -126 226 -40 459 122 508 351 14 63 7 177 -14 237 -44
126 -149 230 -274 271 -81 27 -214 28 -293 2z m227 -156 c184 -55 248 -299
119 -453 -64 -75 -183 -110 -283 -83 -55 15 -124 74 -160 136 -25 44 -28 60
-28 135 0 106 27 166 101 222 75 57 156 71 251 43z"/>
<path d="M5700 2221 l-65 -17 -3 -422 c-1 -232 1 -422 5 -422 5 0 24 4 43 9
19 6 54 15 77 21 l42 11 3 243 3 243 30 58 c38 75 93 116 164 123 l51 5 35 75
c27 57 33 77 23 83 -36 22 -204 -17 -270 -62 -14 -11 -29 -19 -32 -19 -3 0 -6
20 -6 45 0 52 1 52 -100 26z"/>
<path d="M6403 2223 l-63 -15 0 -424 c0 -233 3 -424 8 -424 4 0 39 9 77 18
l70 18 3 422 c2 398 1 422 -15 421 -10 -1 -46 -8 -80 -16z"/>
<path d="M8570 1802 c0 -29 34 -128 54 -159 11 -17 39 -44 61 -58 48 -32 106
-30 155 5 l32 23 -38 38 c-20 21 -51 43 -68 49 -71 27 -73 29 -30 29 34 1 52
-7 95 -39 l54 -41 3 32 c4 39 -12 80 -45 111 -23 22 -32 23 -149 23 -97 0
-124 -3 -124 -13z"/>
<path d="M9235 1607 c-34 -16 -95 -80 -95 -101 0 -7 28 -26 63 -42 47 -21 76
-28 121 -27 71 1 63 -17 -11 -24 -35 -4 -68 2 -122 21 l-73 25 7 -27 c10 -42
52 -101 88 -122 44 -27 101 -25 167 6 30 14 85 34 122 43 l68 17 -38 62 c-47
78 -93 127 -143 153 -52 26 -116 33 -154 16z"/>
<path d="M5002 1153 c-33 -63 -154 -358 -166 -406 -38 -145 51 -242 139 -154
42 42 51 76 37 136 -12 53 -5 68 36 74 15 2 4 5 -24 6 -56 1 -84 21 -84 60 0
27 59 157 101 223 26 39 29 51 19 63 -17 20 -47 19 -58 -2z"/>
<path d="M2916 1145 c-9 -9 -19 -28 -22 -43 -3 -15 -44 -155 -90 -310 -46
-156 -84 -295 -84 -308 0 -17 6 -24 19 -24 21 0 32 24 76 166 24 78 27 82 58
87 17 3 60 15 95 28 51 18 67 20 87 11 71 -32 -15 -124 -158 -168 -69 -21 -92
-49 -52 -64 65 -25 248 77 281 157 21 50 17 73 -20 108 l-34 31 24 40 c13 21
24 52 24 67 0 77 -60 135 -125 123 -41 -8 -48 2 -32 43 18 49 -14 88 -47 56z
m126 -172 c22 -20 23 -64 3 -103 -19 -36 -89 -78 -135 -82 -34 -3 -35 -2 -33
29 4 41 40 139 59 158 20 20 83 19 106 -2z"/>
<path d="M5828 1083 c-22 -25 -35 -53 -73 -151 -18 -48 -54 -138 -79 -200 -46
-113 -51 -154 -21 -166 20 -7 29 8 78 126 54 127 115 229 127 207 4 -8 11 -41
15 -74 4 -33 20 -102 37 -154 38 -118 73 -161 139 -168 43 -5 48 -3 71 28 28
39 54 102 102 247 31 94 96 213 132 243 25 21 16 39 -20 39 -25 0 -42 -9 -66
-32 -38 -38 -61 -88 -119 -253 -56 -160 -72 -190 -96 -190 -55 0 -114 200
-125 427 0 11 -71 88 -80 88 -4 0 -14 -8 -22 -17z"/>
<path d="M4186 943 c-3 -10 -10 -40 -16 -68 -17 -82 -29 -103 -65 -115 -52
-17 -56 -50 -7 -50 20 0 23 -4 18 -23 -14 -58 -37 -97 -60 -103 -49 -12 -54
12 -30 149 10 57 -17 48 -102 -33 -68 -65 -104 -85 -104 -60 0 6 12 38 26 71
27 66 26 89 -4 89 -25 0 -48 -28 -44 -52 5 -25 -35 -130 -55 -145 -43 -33 -80
5 -60 60 7 22 6 32 -8 47 -15 17 -20 17 -55 5 -21 -7 -55 -24 -76 -37 -60 -37
-64 -40 -64 -34 0 3 17 24 37 47 49 54 85 71 128 63 30 -5 35 -4 35 13 0 26
-31 53 -61 53 -41 0 -144 -76 -193 -141 -50 -66 -51 -70 -35 -101 15 -28 57
-18 137 34 l65 42 16 -23 c51 -74 87 -88 128 -49 23 21 23 21 23 1 0 -51 77
-29 154 45 l48 47 -5 -44 c-5 -37 -2 -47 18 -67 28 -28 42 -30 73 -8 20 14 22
14 22 -4 0 -25 7 -31 30 -25 13 3 30 33 52 92 35 90 46 101 117 116 33 7 34 7
27 -21 -20 -86 -19 -111 5 -128 37 -26 61 -19 129 35 l63 51 -6 -48 c-15 -121
-71 -219 -161 -281 -53 -37 -112 -45 -123 -17 -5 13 -7 13 -14 2 -15 -23 -10
-47 15 -63 32 -22 83 -8 162 43 112 72 160 169 173 342 4 58 6 111 3 118 -2 6
-14 12 -26 12 -14 0 -36 -21 -69 -66 -46 -62 -89 -95 -104 -81 -6 6 4 54 22
114 10 31 -19 42 -45 18 -16 -15 -27 -16 -62 -9 -40 9 -43 12 -41 39 1 17 9
51 18 78 11 35 13 52 5 67 -13 25 -47 26 -54 3z"/>
<path d="M6736 952 c-3 -5 -10 -31 -16 -58 -25 -114 -30 -124 -58 -130 -57
-14 -74 -54 -22 -54 17 0 30 -1 30 -3 0 -2 -14 -41 -30 -87 -20 -52 -27 -87
-21 -93 20 -20 47 14 81 100 l36 88 57 14 c32 7 60 11 63 8 3 -3 -3 -31 -15
-62 -25 -67 -27 -111 -5 -119 25 -10 86 22 138 72 l48 47 -6 -43 c-6 -37 -3
-46 19 -68 16 -16 33 -24 45 -21 11 3 21 -1 24 -10 3 -8 15 -13 27 -11 14 2
27 20 44 61 12 31 30 69 40 83 21 33 72 54 128 54 l43 0 -4 -57 c-3 -52 -1
-60 22 -82 48 -45 140 -20 210 58 21 23 12 29 -13 7 -28 -23 -109 -49 -135
-42 -16 4 -28 16 -32 31 -9 37 2 55 33 55 16 0 45 12 66 26 34 23 38 29 35 62
-3 34 -6 37 -36 40 -35 4 -92 -26 -116 -59 -13 -19 -14 -19 -59 1 l-46 21 -40
-21 c-51 -25 -53 -25 -45 5 6 24 -9 55 -27 55 -14 0 -29 -37 -57 -138 -23 -81
-31 -97 -47 -97 -17 0 -20 7 -19 50 0 28 4 69 8 93 12 62 -11 56 -101 -28 -70
-65 -103 -84 -103 -60 0 6 11 38 24 71 26 63 25 89 -4 89 -21 0 -53 -34 -43
-45 12 -12 -78 2 -90 14 -8 8 -6 32 8 86 15 61 16 77 5 90 -14 16 -36 20 -44
7z"/>
<path d="M3229 797 c-104 -70 -117 -210 -23 -236 49 -14 104 11 159 70 22 24
31 36 20 27 -28 -23 -112 -58 -141 -58 -33 0 -59 41 -44 69 6 12 20 21 31 21
32 0 97 38 104 61 4 11 4 31 1 45 -5 19 -13 24 -40 24 -18 0 -48 -10 -67 -23z"/>
<path d="M6412 796 c-54 -28 -145 -117 -167 -162 -18 -39 -7 -74 24 -74 20 0
102 41 139 71 35 27 50 24 66 -15 25 -60 77 -73 117 -29 13 15 16 22 7 14 -9
-7 -27 -11 -40 -9 -21 3 -23 8 -23 55 0 34 -5 58 -16 68 -15 15 -23 13 -103
-29 -88 -46 -100 -41 -39 15 52 49 79 61 117 53 32 -5 36 -4 36 14 0 27 -26
52 -53 52 -12 -1 -41 -11 -65 -24z"/>
<path d="M5142 771 c-8 -5 -22 -39 -33 -77 -17 -62 -17 -70 -3 -91 31 -49 70
-43 141 22 28 24 52 42 55 40 10 -11 -14 -123 -38 -175 -43 -94 -140 -180
-204 -180 -20 0 -41 5 -48 12 -9 9 -12 5 -12 -20 0 -48 34 -61 97 -37 99 37
178 109 219 200 26 57 47 186 42 260 -3 42 -6 50 -25 53 -15 2 -29 -8 -49 -35
-94 -129 -149 -149 -118 -43 22 74 15 96 -24 71z"/>
</g>
</svg>
